<?xml version="1.0" standalone="no"?>
<!DOCTYPE svg PUBLIC "-//W3C//DTD SVG 20010904//EN"
 "http://www.w3.org/TR/2001/REC-SVG-20010904/DTD/svg10.dtd">
<svg version="1.0" xmlns="http://www.w3.org/2000/svg"
 width="736.000000pt" height="736.000000pt" viewBox="0 0 736.000000 736.000000"
 preserveAspectRatio="xMidYMid meet">

<g transform="translate(0.000000,736.000000) scale(0.100000,-0.100000)"
fill="#000000" stroke="none">
<path d="M0 3680 l0 -3680 2213 0 2212 0 30 50 c37 64 79 84 221 110 60 11
130 24 156 30 26 5 55 7 63 4 20 -8 71 -108 80 -157 l7 -37 184 0 c173 0 184
1 194 20 13 25 29 25 108 0 62 -19 94 -20 978 -20 l914 0 0 444 c0 346 -3 445
-12 449 -10 4 -10 6 0 6 9 1 12 654 12 3231 l0 3230 -3680 0 -3680 0 0 -3680z
m2520 3574 c6 -14 10 -41 10 -60 0 -31 -3 -34 -30 -34 -26 0 -31 5 -40 40 -14
53 -6 80 26 80 17 0 27 -8 34 -26z m55 -114 c18 -20 18 -21 -4 -42 l-23 -21 7
22 c4 12 2 21 -4 21 -6 0 -11 9 -11 20 0 25 12 25 35 0z m125 -69 c0 -36 -19
-91 -31 -91 -18 0 -21 31 -9 75 14 51 40 61 40 16z m-284 -227 c41 -43 49 -72
38 -127 -22 -105 -120 -7 -108 108 7 66 22 70 70 19z m2451 -234 c81 -38 124
-56 208 -87 39 -14 74 -29 80 -34 5 -5 15 -9 22 -9 7 0 32 -9 56 -19 23 -10
68 -29 100 -42 45 -18 54 -25 40 -30 -13 -6 -9 -8 15 -8 17 -1 32 -6 32 -11 0
-6 6 -10 13 -8 6 1 34 -8 61 -21 35 -16 45 -25 36 -31 -11 -7 -11 -11 -1 -24
7 -8 10 -20 6 -26 -8 -13 8 -13 22 1 6 6 17 8 23 4 8 -5 9 -10 1 -18 -6 -6
-11 -46 -11 -89 0 -77 0 -78 -25 -78 -22 0 -25 -4 -25 -40 0 -29 -4 -40 -15
-40 -11 0 -15 -11 -15 -40 0 -36 -2 -40 -25 -40 -16 0 -25 -6 -25 -15 0 -8 -4
-15 -9 -15 -5 0 -23 -12 -40 -26 -25 -21 -31 -33 -31 -65 0 -39 0 -39 40 -39
l40 0 0 -40 0 -40 -40 0 -40 0 0 -65 0 -65 -40 0 c-29 0 -40 -4 -40 -15 0 -11
-11 -15 -36 -15 -32 0 -35 -2 -24 -16 24 -28 48 -35 70 -22 11 7 20 18 20 25
0 7 11 13 25 13 18 0 25 -5 25 -20 0 -11 -6 -23 -14 -26 -19 -7 -28 -46 -13
-56 6 -4 8 -10 4 -15 -5 -4 -12 -2 -16 5 -8 13 -41 6 -41 -8 0 -5 -10 -10 -22
-12 -14 -2 -23 -9 -22 -20 1 -14 -6 -16 -47 -11 -45 5 -49 4 -58 -19 -9 -24
-86 -98 -103 -98 -4 0 -8 -7 -8 -15 0 -18 -17 -20 -22 -3 -3 8 -11 7 -28 -5
-14 -9 -21 -17 -17 -17 4 0 3 -6 -3 -12 -5 -7 -24 -29 -40 -48 -16 -19 -33
-44 -36 -55 -8 -24 -41 -104 -53 -125 -5 -9 -12 -30 -15 -48 -4 -17 -12 -34
-17 -37 -5 -4 -9 -17 -9 -30 0 -13 -5 -27 -10 -30 -6 -4 -8 -10 -5 -15 3 -5
-1 -34 -9 -65 -29 -109 -43 -370 -21 -379 19 -7 45 26 45 59 0 15 12 49 28 74
15 25 38 69 51 96 14 28 34 64 46 80 11 17 27 42 35 57 7 15 17 25 22 22 4 -3
8 3 8 14 0 22 74 125 84 115 3 -3 6 4 6 17 0 19 3 20 15 10 12 -10 12 -15 -1
-36 -9 -13 -20 -22 -24 -19 -5 3 -12 0 -16 -6 -4 -8 -3 -9 4 -5 7 4 12 2 12
-4 0 -6 -11 -15 -25 -20 -15 -6 -25 -17 -24 -27 1 -17 2 -17 6 0 2 9 9 17 14
17 5 0 3 -13 -6 -30 -9 -16 -19 -30 -24 -30 -4 0 -8 -12 -8 -27 -1 -30 -20
-110 -31 -127 -8 -14 -9 -23 -18 -221 -3 -90 -2 -175 3 -195 l9 -34 90 3 c86
2 90 2 91 -19 1 -12 -1 -20 -4 -17 -9 10 -31 -17 -25 -31 2 -8 14 -18 26 -22
l21 -9 -22 -7 c-18 -5 -21 -10 -13 -24 6 -10 10 -35 10 -54 0 -35 1 -36 41
-36 l40 0 -2 52 c-2 38 1 53 11 56 13 3 12 2 0 -7 -13 -10 -13 -11 0 -11 12 0
14 -10 12 -45 -2 -25 -8 -45 -13 -45 -5 0 -9 -22 -9 -48 0 -26 -6 -54 -12 -61
-10 -11 -10 -14 0 -18 6 -3 12 -14 12 -25 0 -16 5 -19 23 -14 12 3 25 6 30 6
4 0 7 18 7 40 0 22 5 40 10 40 6 0 10 -24 10 -53 0 -50 -1 -52 -27 -52 -40 0
-40 -19 -1 -25 23 -4 29 -8 20 -14 -7 -4 -28 -5 -46 -2 -29 6 -33 9 -28 33 4
21 2 25 -11 20 -9 -3 -19 -2 -22 3 -4 6 -2 10 3 10 11 0 4 39 -10 57 -6 8 -2
13 14 16 21 4 21 4 -4 6 -14 0 -28 -4 -30 -9 -2 -7 -15 -5 -36 5 -34 17 -41
30 -19 38 6 2 -1 3 -17 1 -19 -3 -34 2 -45 14 -40 46 -66 29 -49 -33 4 -16 10
-66 13 -110 3 -44 8 -100 11 -124 5 -41 5 -43 -11 -27 -12 11 -16 29 -13 55 2
22 0 37 -4 35 -5 -3 -8 -15 -8 -27 0 -12 -10 -28 -21 -36 -13 -7 -18 -16 -12
-20 18 -10 24 -183 8 -205 -14 -18 -15 -17 -27 8 -10 22 -9 29 2 36 11 7 12
11 0 25 -7 8 -18 14 -24 12 -12 -5 -68 102 -60 115 10 15 23 8 17 -9 -4 -11
-3 -14 6 -9 13 8 5 74 -11 91 -7 7 -8 -2 -3 -24 6 -26 4 -32 -6 -29 -8 3 -15
14 -17 26 -2 12 -8 22 -13 22 -6 0 -16 15 -24 34 -13 30 -13 39 -1 68 12 29
21 113 17 176 0 12 -7 22 -15 22 -15 0 -26 -42 -26 -104 0 -68 -23 -84 -34
-24 -2 14 -11 39 -20 56 -22 42 -20 53 14 156 34 100 36 116 16 116 -13 0 -48
-69 -61 -123 -6 -22 -10 -25 -21 -16 -8 7 -12 21 -9 33 3 12 2 15 -1 8 -7 -15
-24 -6 -24 14 0 9 5 12 12 8 8 -5 9 -2 5 10 -4 9 2 39 13 67 10 28 16 57 13
65 -9 24 -32 16 -39 -13 -4 -16 -10 -32 -13 -38 -4 -5 -8 -23 -10 -40 -4 -40
-6 -41 -32 -16 -13 12 -28 21 -35 21 -28 0 -36 28 -21 72 14 39 16 40 14 13
-1 -43 12 -62 27 -38 9 12 10 36 6 73 -4 30 -8 47 -9 38 0 -10 -5 -18 -10 -18
-4 0 -6 11 -3 25 2 13 1 33 -3 42 -6 17 -7 17 -20 0 -7 -11 -17 -36 -20 -58
-4 -21 -10 -39 -15 -39 -4 0 -8 -6 -7 -12 2 -59 1 -59 -55 -25 -29 18 -55 35
-58 38 -3 3 -17 9 -32 13 -25 6 -28 11 -28 51 0 71 -20 58 -32 -20 -3 -16 -11
-20 -38 -20 -31 0 -35 3 -32 23 2 15 -2 22 -12 22 -16 0 -20 -11 -17 -38 1 -8
-3 -20 -10 -28 -10 -12 -13 -12 -24 2 -14 20 -35 11 -35 -15 0 -10 -7 -24 -16
-32 -14 -12 -15 -8 -9 34 6 39 5 47 -9 47 -9 0 -18 -12 -22 -27 -11 -53 -13
-48 -8 22 8 87 -17 261 -51 369 -28 88 -107 240 -163 314 -79 105 -240 221
-329 238 -36 7 -28 18 -93 -131 -44 -101 -80 -235 -81 -307 l-1 -53 -10 40
c-5 22 -7 65 -3 97 6 60 -8 89 -19 37 -3 -18 -6 -59 -6 -92 0 -56 -1 -59 -15
-41 -14 17 -15 7 -13 -114 2 -72 1 -132 -2 -132 -3 0 -12 15 -21 33 -9 17 -23
33 -32 35 -27 5 -21 -46 18 -147 19 -49 35 -95 35 -100 0 -5 -12 -5 -30 2 -38
14 -47 4 -32 -35 8 -21 8 -36 2 -42 -18 -18 -10 -40 30 -77 45 -42 49 -54 20
-62 -30 -8 -24 -30 13 -46 17 -7 46 -20 62 -27 88 -40 237 -53 383 -32 69 9
82 14 82 30 0 11 -17 30 -43 46 -46 29 -114 79 -135 100 -16 14 0 16 26 2 44
-24 137 -40 236 -40 58 0 106 -2 106 -5 0 -2 -14 -24 -30 -47 -19 -28 -41 -82
-60 -153 -16 -60 -36 -126 -44 -145 -8 -19 -20 -51 -27 -69 l-13 -35 -12 70
c-7 38 -13 87 -13 109 -1 22 -5 46 -10 54 -34 53 -257 -157 -318 -300 -6 -14
-9 -46 -7 -71 4 -55 57 -204 83 -232 25 -29 37 -211 15 -241 -13 -18 -15 -12
-12 55 3 70 2 75 -18 78 -15 2 -30 -9 -51 -37 -17 -23 -32 -39 -35 -36 -2 3 2
31 10 63 24 92 -3 120 -61 65 l-28 -28 11 29 c6 16 13 60 16 97 7 80 -6 91
-47 37 -13 -17 -40 -50 -60 -72 -20 -23 -47 -52 -59 -66 l-22 -25 7 25 c3 14
10 48 15 75 5 28 18 84 29 125 34 124 23 183 -22 124 -40 -51 -77 -89 -72 -74
19 61 21 132 5 175 l-9 25 -36 -20 c-19 -11 -76 -49 -126 -85 -50 -36 -107
-72 -127 -81 -38 -17 -172 -64 -180 -64 -3 0 25 28 62 61 67 62 102 111 91
129 -3 6 -34 10 -69 10 -62 0 -178 25 -245 52 l-33 13 98 45 c55 24 101 47
104 50 3 4 31 23 62 44 144 94 150 138 19 130 -25 -1 -54 1 -65 5 -20 8 -20 8
-1 19 32 16 145 109 203 165 55 53 86 100 79 120 -2 8 -50 16 -133 22 l-129
10 47 22 c25 12 68 36 94 55 62 43 211 193 231 232 9 17 19 33 22 36 4 3 22
36 40 73 47 96 112 298 150 462 67 290 82 342 124 429 23 49 61 119 85 154 23
36 42 69 42 75 0 5 -11 22 -25 38 -25 30 -24 59 1 59 19 0 18 40 -2 68 -8 12
-10 22 -5 22 6 0 11 -3 11 -7 0 -12 51 -33 62 -27 5 3 2 17 -7 31 -20 30 -9
47 33 48 20 0 27 5 27 20 0 13 -6 19 -17 17 -12 -2 -15 3 -11 20 8 31 43 68
65 68 10 0 18 5 18 10 0 6 8 10 18 10 14 0 15 -2 2 -10 -8 -5 -10 -10 -5 -10
19 0 38 18 31 29 -12 19 8 12 38 -14 16 -14 32 -25 35 -25 6 0 111 69 121 80
3 3 19 12 35 21 17 9 59 34 95 56 36 22 84 47 107 56 23 9 61 25 85 36 132 61
421 145 554 160 6 0 38 -12 71 -29z m-2968 -64 c7 -8 22 -17 35 -20 16 -4 25
-15 30 -37 10 -52 8 -56 -31 -63 -24 -3 -49 -17 -66 -36 -23 -24 -32 -28 -48
-20 -38 21 -20 127 29 167 32 27 36 28 51 9z m3737 -269 c19 -11 23 -16 12
-17 -9 0 -20 5 -23 10 -3 6 -22 10 -41 10 -23 0 -34 5 -34 14 0 17 37 9 86
-17z m-16 -33 c0 -8 5 -12 10 -9 6 3 10 -3 10 -14 0 -12 -4 -21 -10 -21 -6 0
-10 -27 -10 -60 0 -33 -4 -60 -10 -60 -6 0 -10 37 -10 90 0 53 4 90 10 90 6 0
10 -7 10 -16z m124 -9 c-9 -14 -20 -25 -25 -25 -5 0 1 11 13 25 12 14 23 25
25 25 2 0 -4 -11 -13 -25z m-18 -60 c-11 -8 -22 -12 -25 -9 -6 6 19 24 34 24
6 -1 1 -7 -9 -15z m-2233 -291 c-9 -14 -18 -22 -21 -20 -3 3 1 12 7 20 7 8 10
20 6 25 -3 7 0 8 9 5 14 -5 13 -9 -1 -30z m-1153 -56 c0 -16 -3 -19 -11 -11
-6 6 -8 16 -5 22 11 17 16 13 16 -11z m-20 -18 c0 -5 -9 -10 -20 -10 -11 0
-20 5 -20 10 0 6 9 10 20 10 11 0 20 -4 20 -10z m3220 -250 c0 -22 -4 -40 -10
-40 -5 0 -10 18 -10 40 0 22 5 40 10 40 6 0 10 -18 10 -40z m-80 -80 c0 -22
-4 -40 -10 -40 -5 0 -10 18 -10 40 0 22 5 40 10 40 6 0 10 -18 10 -40z m-103
-122 c-3 -8 -6 -5 -6 6 -1 11 2 17 5 13 3 -3 4 -12 1 -19z m56 -5 c-7 -2 -19
-2 -25 0 -7 3 -2 5 12 5 14 0 19 -2 13 -5z m77 -3 c8 -5 11 -12 8 -16 -4 -3
-14 1 -23 10 -18 17 -9 21 15 6z m110 -29 c-1 -15 -20 -35 -27 -28 -4 5 -1 12
6 16 10 7 11 14 1 32 -11 23 -10 23 4 5 9 -11 16 -22 16 -25z m-400 20 c0 -5
-7 -11 -15 -15 -15 -5 -20 5 -8 17 9 10 23 9 23 -2z m278 -22 c11 0 12 -2 4
-6 -15 -6 -42 14 -42 31 0 6 5 3 11 -6 5 -10 18 -18 27 -19z m-104 6 c-19 -14
-19 -14 1 -15 16 0 17 -2 6 -9 -10 -7 -19 -4 -27 7 -13 18 -3 32 25 32 11 0 9
-4 -5 -15z m156 -55 c-10 -6 -11 -10 -2 -10 17 0 15 -27 -2 -33 -10 -4 -13 -1
-9 9 7 19 -11 18 -27 -1 -7 -8 -18 -15 -24 -15 -13 1 55 59 69 60 6 0 3 -5 -5
-10z m-40 -70 c-19 -13 -30 -13 -30 0 0 6 10 10 23 10 18 0 19 -2 7 -10z m125
-18 c-3 -3 -11 0 -18 7 -9 10 -8 11 6 5 10 -3 15 -9 12 -12z m-185 -12 c0 -5
-9 -14 -20 -20 -24 -13 -26 -7 -4 14 18 18 24 20 24 6z m149 6 c-2 -2 -17 -6
-34 -10 -22 -5 -26 -4 -15 4 14 9 59 15 49 6z m-72 -22 c-3 -3 -12 -4 -19 -1
-8 3 -5 6 6 6 11 1 17 -2 13 -5z m-177 -46 c-19 -17 -27 -28 -17 -24 9 3 25 9
35 13 26 10 12 -2 -33 -27 -23 -13 -34 -16 -27 -7 10 12 9 16 -9 20 -19 5 -20
8 -9 22 7 9 18 14 25 11 6 -2 22 4 35 14 39 29 39 11 0 -22z m130 38 c0 -11
-19 -15 -25 -6 -3 5 1 10 9 10 9 0 16 -2 16 -4z m-1814 -68 l19 -21 -27 18
c-29 18 -34 25 -20 25 5 0 17 -10 28 -22z m-1301 -32 c31 -46 29 -67 -8 -80
-32 -12 -47 2 -47 45 0 21 21 81 27 76 1 -2 14 -20 28 -41z m2907 20 c4 -19 1
-22 -14 -18 -13 3 -17 0 -13 -11 4 -9 -5 -23 -23 -36 -25 -17 -31 -18 -35 -6
-4 10 -1 12 10 8 12 -5 14 -1 8 18 -7 22 -7 23 10 9 16 -14 17 -13 11 8 -5 16
-3 22 7 22 8 0 17 7 21 15 8 21 13 19 18 -9z m-92 -96 c0 -5 -8 -6 -17 -3 -12
5 -15 2 -10 -10 6 -16 -9 -34 -20 -23 -9 9 27 57 37 51 6 -4 10 -10 10 -15z
m-63 -62 c-3 -8 -6 -5 -6 6 -1 11 2 17 5 13 3 -3 4 -12 1 -19z m-1283 -4 c3
-8 2 -12 -4 -9 -6 3 -10 10 -10 16 0 14 7 11 14 -7z m61 -95 c14 -28 30 -62
35 -75 16 -40 1 -27 -17 16 -10 22 -23 40 -30 40 -6 0 -15 4 -18 10 -4 6 1 7
11 3 17 -6 17 -5 1 17 -16 23 -22 40 -13 40 2 0 16 -23 31 -51z m5 -79 c0 -5
-2 -10 -4 -10 -3 0 -8 5 -11 10 -3 6 -1 10 4 10 6 0 11 -4 11 -10z m-603 -87
c-3 -10 -5 -2 -5 17 0 19 2 27 5 18 2 -10 2 -26 0 -35z m660 -5 c-3 -8 -6 -5
-6 6 -1 11 2 17 5 13 3 -3 4 -12 1 -19z m1920 -20 c-3 -8 -6 -5 -6 6 -1 11 2
17 5 13 3 -3 4 -12 1 -19z m-1930 -20 c-3 -8 -6 -5 -6 6 -1 11 2 17 5 13 3 -3
4 -12 1 -19z m-603 -53 c7 -34 -7 -15 -19 25 -5 16 -4 22 3 15 5 -5 12 -23 16
-40z m576 -20 c-6 -15 -13 -25 -16 -23 -2 3 1 17 7 32 16 34 23 27 9 -9z m-40
-66 c-6 -10 -13 -19 -16 -19 -2 0 0 8 5 19 6 10 7 22 3 26 -4 5 -1 5 6 1 9 -5
9 -12 2 -27z m-403 -24 c-21 -15 -22 -25 -3 -25 8 0 16 -7 20 -15 3 -8 2 -15
-3 -15 -12 0 -38 33 -43 56 -5 18 -2 20 20 16 22 -4 23 -6 9 -17z m353 -30
c-7 -8 -16 -15 -21 -15 -5 0 -1 9 8 20 9 11 19 17 21 15 3 -3 -1 -11 -8 -20z
m-213 -11 c-3 -3 -12 -4 -19 -1 -8 3 -5 6 6 6 11 1 17 -2 13 -5z m70 -10 c-3
-3 -12 -4 -19 -1 -8 3 -5 6 6 6 11 1 17 -2 13 -5z m2053 2 c0 -3 -4 -8 -10
-11 -5 -3 -10 -1 -10 4 0 6 5 11 10 11 6 0 10 -2 10 -4z m-2159 -19 c-6 -8 -8
-17 -4 -20 13 -14 -33 -6 -52 9 -18 13 -17 14 13 8 21 -4 32 -3 32 5 0 6 5 11
11 11 8 0 9 -4 0 -13z m165 -12 c-11 -8 -27 -15 -35 -15 -10 0 -7 6 9 14 33
19 50 19 26 1z m-111 -23 c-3 -3 -11 0 -18 7 -9 10 -8 11 6 5 10 -3 15 -9 12
-12z m1850 -122 c-3 -5 -14 -10 -23 -9 -14 0 -13 2 3 9 27 11 27 11 20 0z
m-50 -20 c3 -6 -4 -10 -17 -10 -18 0 -20 2 -8 10 19 12 18 12 25 0z m-72 -17
c-7 -2 -19 -2 -25 0 -7 3 -2 5 12 5 14 0 19 -2 13 -5z m-133 -23 c-13 -8 -13
-10 0 -10 11 0 11 -3 2 -12 -6 -6 -15 -9 -18 -5 -10 10 4 37 18 37 9 0 8 -3
-2 -10z m-45 -10 c3 -5 1 -10 -4 -10 -6 0 -11 5 -11 10 0 6 2 10 4 10 3 0 8
-4 11 -10z m0 -130 c-3 -5 -15 -10 -26 -10 -10 0 -19 5 -19 10 0 6 12 10 26
10 14 0 23 -4 19 -10z m125 0 c-8 -5 -19 -10 -25 -10 -5 0 -3 5 5 10 8 5 20
10 25 10 6 0 3 -5 -5 -10z m-1550 -203 l12 -103 -31 -56 c-29 -50 -92 -118
-112 -118 -4 0 -10 8 -14 18 -5 14 -10 10 -26 -20 -11 -21 -24 -38 -29 -38
-22 0 -4 91 35 184 6 14 5 18 -6 14 -16 -5 -58 -121 -59 -163 0 -38 -14 -60
-30 -50 -20 13 -7 151 20 214 18 42 44 71 118 137 51 46 97 84 101 84 5 0 14
-46 21 -103z m1346 -19 c92 -98 108 -138 85 -218 -7 -25 -8 -24 -25 13 -25 51
-31 39 -16 -31 11 -53 10 -62 -6 -86 -20 -32 -28 -24 -39 44 -9 55 -23 95 -31
87 -3 -3 2 -48 11 -101 l17 -95 -33 -40 c-36 -46 -54 -53 -46 -18 3 12 11 72
18 132 10 101 8 201 -8 329 -5 45 -5 48 13 38 10 -6 37 -30 60 -54z m74 -5 c0
-13 -3 -13 -15 -3 -8 7 -15 16 -15 21 0 5 7 6 15 3 8 -4 15 -13 15 -21z m98
-145 c2 7 -1 18 -7 25 -7 9 -5 13 7 13 20 0 25 -47 5 -53 -12 -4 -43 34 -43
52 1 5 8 -3 17 -20 10 -18 18 -25 21 -17z m81 -75 c11 -21 20 -32 21 -24 0 8
2 12 5 9 3 -3 3 -13 -1 -22 -6 -16 -8 -16 -25 0 -11 9 -19 27 -19 40 0 12 -6
25 -12 27 -10 4 -10 6 -1 6 7 1 21 -16 32 -36z m18 5 c-3 -8 -6 -5 -6 6 -1 11
2 17 5 13 3 -3 4 -12 1 -19z m-369 -16 c-5 -23 -28 -27 -28 -4 0 10 7 19 15
19 9 0 15 -7 13 -15z m-2 -84 c-3 -24 -8 -63 -10 -86 -5 -50 -13 -63 -26 -42
-13 21 -12 33 2 24 8 -5 9 -2 5 10 -4 10 -3 15 3 11 5 -3 9 17 9 49 -1 51 5
76 17 76 3 0 3 -19 0 -42z m444 32 c0 -5 -2 -10 -4 -10 -3 0 -8 5 -11 10 -3 6
-1 10 4 10 6 0 11 -4 11 -10z m-3581 -45 c12 -10 34 -46 50 -79 28 -60 38 -90
82 -251 12 -44 31 -102 42 -130 37 -86 171 -305 188 -305 15 0 10 14 -27 68
-20 30 -34 55 -32 57 8 8 106 -18 141 -37 21 -11 41 -17 45 -13 11 11 -51 55
-78 55 -28 0 -108 23 -139 40 -40 21 -165 340 -143 362 14 14 104 26 132 18
15 -4 95 -41 176 -81 82 -40 199 -91 260 -114 156 -58 198 -85 227 -143 13
-26 40 -77 60 -113 37 -66 54 -118 77 -234 29 -152 135 -404 218 -518 19 -27
38 -66 42 -88 6 -34 3 -47 -27 -97 -19 -31 -43 -66 -53 -77 -39 -42 -69 -115
-92 -218 -13 -59 -26 -107 -30 -107 -10 0 -23 107 -20 173 1 44 11 78 38 134
35 73 35 75 17 95 -10 11 -56 39 -103 63 -124 62 -214 149 -270 260 -46 91
-96 146 -159 173 -26 11 -87 17 -231 22 -107 4 -210 12 -228 18 -51 17 -151
81 -165 107 -6 13 -39 53 -72 91 -33 37 -65 74 -72 83 -6 9 -15 13 -19 8 -4
-4 10 -26 32 -50 22 -23 58 -64 79 -92 22 -27 54 -66 72 -85 37 -40 40 -64 17
-136 -22 -69 -65 -175 -83 -202 -22 -35 -102 -71 -187 -83 -81 -11 -111 -2
-99 30 8 19 30 103 83 311 42 164 55 240 42 240 -4 0 -10 -26 -14 -57 -10 -91
-42 -201 -70 -244 -14 -21 -26 -42 -26 -47 0 -4 -15 -30 -32 -57 -18 -28 -42
-68 -53 -89 -11 -21 -37 -50 -58 -64 -33 -22 -51 -26 -158 -31 -95 -5 -123 -3
-127 7 -9 24 7 96 44 192 39 102 84 256 83 280 0 8 -5 4 -10 -10 -12 -34 -77
-49 -239 -57 -294 -13 -579 69 -766 220 -29 23 -59 57 -68 75 -32 66 -11 149
49 188 39 25 162 13 224 -23 150 -86 147 -85 301 -113 30 -6 111 -11 180 -11
118 0 131 2 205 32 99 39 213 97 282 141 58 39 124 63 146 55 8 -3 20 -27 27
-54 17 -65 25 -38 11 40 -31 186 -23 304 29 407 23 45 37 61 67 74 51 22 154
17 182 -9z m1521 -1056 l62 -30 -7 -52 c-4 -29 -12 -58 -18 -65 -30 -38 31
-15 106 39 28 20 44 26 52 19 20 -16 216 -110 283 -136 35 -13 75 -30 90 -38
15 -8 65 -33 112 -54 209 -97 396 -186 458 -219 37 -20 112 -58 167 -85 169
-83 385 -210 426 -250 37 -36 39 -41 39 -102 0 -61 -28 -235 -51 -321 -6 -22
-36 -92 -67 -154 -72 -147 -130 -208 -257 -273 -211 -108 -406 -140 -626 -103
-304 51 -592 234 -708 450 -119 222 -135 252 -154 279 -20 28 -20 31 -4 95 9
36 19 95 23 131 9 84 13 94 72 173 28 36 53 75 57 87 4 12 -1 51 -12 88 -16
58 -26 75 -88 138 -38 39 -81 79 -95 90 -42 31 -118 132 -125 165 -12 54 8 80
93 121 42 20 84 37 93 37 10 1 45 -13 79 -30z m-1530 -783 c4 -11 24 -45 44
-75 20 -29 36 -55 36 -58 0 -5 64 -106 91 -143 61 -84 286 -384 294 -394 6 -6
33 -40 60 -76 27 -36 57 -74 67 -85 63 -74 130 -165 144 -193 36 -75 -24 -189
-189 -359 -199 -205 -263 -237 -423 -213 -43 7 -92 18 -109 24 -16 7 -47 16
-67 20 -43 8 -83 50 -150 158 -24 38 -74 113 -113 166 -38 54 -89 135 -113
182 l-44 85 4 120 c7 164 22 201 204 503 24 41 44 76 44 79 0 3 24 44 53 91
30 48 62 110 72 137 11 28 23 53 28 56 17 12 59 -4 67 -25z m3672 -374 c30
-16 77 -44 104 -62 27 -19 70 -48 95 -65 25 -17 63 -44 85 -60 21 -16 59 -44
84 -62 25 -18 50 -36 55 -40 6 -5 39 -28 75 -52 36 -24 79 -56 96 -70 18 -14
45 -36 60 -48 90 -68 96 -92 33 -153 -22 -21 -50 -42 -62 -45 -27 -8 -86 -32
-111 -46 -30 -17 -127 -40 -177 -42 -41 -2 -53 3 -125 57 -126 95 -240 218
-267 291 -32 83 -69 253 -70 323 -2 62 1 76 17 88 28 20 45 18 108 -14z m1671
-224 c26 -26 58 -49 70 -51 16 -3 13 -5 -10 -6 -18 0 -35 5 -40 13 -4 8 -17
15 -28 17 -12 3 -21 14 -23 27 -3 22 -42 53 -42 32 0 -5 4 -10 8 -10 5 0 16
-16 25 -35 11 -23 24 -35 37 -35 18 0 20 -6 20 -85 0 -47 -4 -85 -8 -85 -5 0
-15 -52 -22 -116 -11 -98 -10 -118 1 -125 11 -7 11 -9 1 -9 -10 0 -12 -16 -9
-65 3 -45 1 -63 -6 -56 -6 6 -12 28 -14 48 -1 21 -7 39 -13 41 -5 2 0 12 12
23 13 10 17 18 11 19 -8 0 -13 15 -13 38 0 20 -7 46 -15 56 -20 26 -19 66 0
66 11 0 15 11 15 40 0 48 -17 53 -23 8 -4 -27 -5 -25 -6 12 0 25 -4 104 -8
176 -9 151 -10 150 80 62z"/>
<path d="M5436 6341 c-3 -5 5 -12 18 -15 14 -3 27 -14 29 -24 4 -15 5 -15 6 2
2 28 -41 57 -53 37z"/>
<path d="M5378 6323 c7 -3 16 -2 19 1 4 3 -2 6 -13 5 -11 0 -14 -3 -6 -6z"/>
<path d="M5097 5776 c-24 -26 -47 -44 -49 -40 -3 5 -4 4 -2 -2 1 -6 -22 -37
-52 -69 -30 -32 -54 -60 -54 -62 0 -2 -11 -16 -25 -31 -15 -15 -42 -54 -62
-87 -20 -33 -40 -62 -43 -65 -9 -7 -60 -119 -60 -131 0 -6 -4 -8 -9 -4 -5 3
-13 0 -17 -6 -4 -8 -3 -9 4 -5 8 5 12 0 12 -13 0 -26 28 -28 36 -3 13 39 62
130 68 125 3 -4 6 2 6 13 0 26 68 126 81 119 5 -4 8 -2 7 3 -2 6 14 33 36 61
42 56 64 75 53 47 -4 -10 -3 -15 3 -11 6 3 10 14 10 24 0 16 59 93 102 131 11
10 14 21 8 35 -7 18 -12 16 -53 -29z"/>
<path d="M5300 5720 c0 -33 3 -40 20 -40 17 0 20 7 20 40 0 33 -3 40 -20 40
-17 0 -20 -7 -20 -40z"/>
<path d="M4995 5720 c-3 -5 -1 -10 4 -10 6 0 11 5 11 10 0 6 -2 10 -4 10 -3 0
-8 -4 -11 -10z"/>
<path d="M5086 5677 c3 -10 9 -15 12 -12 3 3 0 11 -7 18 -10 9 -11 8 -5 -6z"/>
<path d="M4436 5672 c-9 -14 -47 -306 -50 -382 -2 -43 19 -33 26 12 50 315 57
378 39 378 -6 0 -12 -4 -15 -8z"/>
<path d="M5046 5458 c-19 -24 -47 -57 -61 -75 -16 -19 -32 -30 -41 -26 -10 4
-12 0 -8 -11 4 -9 -6 -31 -25 -54 -17 -22 -28 -42 -25 -45 3 -3 -2 -17 -11
-31 -17 -26 -13 -46 8 -46 7 1 23 23 36 51 21 41 28 48 45 43 17 -6 19 -4 9 8
-14 16 -4 35 46 88 52 57 91 109 91 124 0 28 -28 17 -64 -26z"/>
<path d="M4899 5463 c-13 -16 -12 -17 4 -4 9 7 17 15 17 17 0 8 -8 3 -21 -13z"/>
<path d="M4575 5458 c-16 -46 -65 -247 -65 -265 0 -13 6 -23 13 -23 13 0 77
232 77 279 0 23 -18 29 -25 9z"/>
<path d="M5090 5436 c0 -2 7 -9 15 -16 13 -11 14 -10 9 4 -5 14 -24 23 -24 12z"/>
<path d="M4860 5411 c0 -6 4 -13 10 -16 6 -3 7 1 4 9 -7 18 -14 21 -14 7z"/>
<path d="M4970 5399 c0 -5 5 -7 10 -4 6 3 10 8 10 11 0 2 -4 4 -10 4 -5 0 -10
-5 -10 -11z"/>
<path d="M5106 5377 c3 -10 9 -15 12 -12 3 3 0 11 -7 18 -10 9 -11 8 -5 -6z"/>
<path d="M4087 5373 c-12 -11 -7 -51 6 -56 7 -3 19 -31 26 -63 7 -33 18 -79
25 -104 8 -25 24 -83 36 -130 22 -82 42 -121 56 -107 4 4 -1 33 -10 64 -10 32
-33 119 -52 193 -45 177 -66 225 -87 203z"/>
<path d="M4902 5346 c7 -8 15 -12 17 -11 5 6 -10 25 -20 25 -5 0 -4 -6 3 -14z"/>
<path d="M4257 5338 c-6 -15 1 -214 9 -267 4 -23 9 -30 16 -23 14 14 6 278 -9
293 -8 8 -12 7 -16 -3z"/>
<path d="M4652 5323 c-13 -25 -36 -101 -67 -218 -15 -55 -30 -109 -35 -121
-13 -33 -33 -174 -26 -181 12 -12 23 11 40 82 24 97 85 321 102 373 8 23 14
49 14 57 0 22 -18 27 -28 8z"/>
<path d="M5098 5323 c7 -3 16 -2 19 1 4 3 -2 6 -13 5 -11 0 -14 -3 -6 -6z"/>
<path d="M4985 5301 c-3 -5 -1 -12 5 -16 5 -3 10 1 10 9 0 18 -6 21 -15 7z"/>
<path d="M5017 5290 c-3 -11 -3 -20 -1 -20 2 0 8 9 14 20 6 11 7 20 2 20 -6 0
-12 -9 -15 -20z"/>
<path d="M5061 5294 c0 -11 3 -14 6 -6 3 7 2 16 -1 19 -3 4 -6 -2 -5 -13z"/>
<path d="M3744 5285 c-4 -9 -4 -27 -2 -40 6 -32 -2 -32 -32 0 -22 23 -60 34
-60 18 0 -4 12 -18 28 -31 l27 -23 -31 15 c-74 36 -155 28 -86 -8 35 -19 285
-270 339 -342 57 -75 99 -132 110 -149 7 -11 27 -43 45 -72 18 -29 38 -51 43
-49 25 7 37 82 31 196 -7 146 -14 174 -48 178 -23 3 -26 9 -32 54 -10 70 -22
91 -50 84 -19 -5 -26 1 -40 32 -33 71 -68 113 -90 110 -15 -2 -21 -10 -20 -25
0 -13 -1 -23 -4 -23 -2 0 -24 20 -48 45 -44 46 -70 56 -80 30z"/>
<path d="M4920 5199 c0 -5 5 -7 10 -4 6 3 10 8 10 11 0 2 -4 4 -10 4 -5 0 -10
-5 -10 -11z"/>
<path d="M4421 5138 c-14 -37 -24 -325 -12 -332 11 -7 14 9 31 137 20 153 9
267 -19 195z"/>
<path d="M4801 5054 c0 -11 3 -14 6 -6 3 7 2 16 -1 19 -3 4 -6 -2 -5 -13z"/>
<path d="M4641 4873 c-51 -110 -120 -332 -121 -386 0 -44 21 -27 37 28 31 107
62 202 79 240 10 22 18 42 19 45 1 3 7 18 14 34 22 54 -5 90 -28 39z"/>
<path d="M4267 4853 c-2 -5 -5 -59 -6 -120 -1 -96 1 -113 14 -113 13 0 15 18
15 114 0 100 -9 145 -23 119z"/>
<path d="M4956 4717 c3 -10 9 -15 12 -12 3 3 0 11 -7 18 -10 9 -11 8 -5 -6z"/>
<path d="M4456 4688 c-4 -18 -10 -68 -13 -110 -5 -66 -4 -78 9 -78 12 0 17 17
22 73 4 39 10 89 13 110 7 49 -21 53 -31 5z"/>
<path d="M4930 4682 c0 -7 7 -20 15 -28 19 -20 20 -4 0 22 -9 12 -14 14 -15 6z"/>
<path d="M4855 4550 c3 -5 8 -10 11 -10 2 0 4 5 4 10 0 6 -5 10 -11 10 -5 0
-7 -4 -4 -10z"/>
<path d="M4877 4539 c-3 -12 -2 -31 3 -42 7 -18 9 -14 9 21 1 46 -4 54 -12 21z"/>
<path d="M4900 4498 c0 -7 5 -20 10 -28 8 -12 10 -11 10 7 0 12 -4 25 -10 28
-5 3 -10 0 -10 -7z"/>
<path d="M4896 4401 c-3 -5 1 -11 9 -15 8 -3 15 -1 15 4 0 13 -18 22 -24 11z"/>
<path d="M4315 4371 c-3 -6 -4 -28 -3 -50 4 -52 28 -35 28 20 0 37 -12 51 -25
30z"/>
<path d="M4881 4264 c0 -11 3 -14 6 -6 3 7 2 16 -1 19 -3 4 -6 -2 -5 -13z"/>
<path d="M4912 4240 c0 -14 2 -19 5 -12 2 6 2 18 0 25 -3 6 -5 1 -5 -13z"/>
<path d="M4881 4224 c0 -11 3 -14 6 -6 3 7 2 16 -1 19 -3 4 -6 -2 -5 -13z"/>
<path d="M4701 4214 c0 -11 3 -14 6 -6 3 7 2 16 -1 19 -3 4 -6 -2 -5 -13z"/>
<path d="M4670 4175 c0 -5 5 -17 10 -25 5 -8 10 -10 10 -5 0 6 -5 17 -10 25
-5 8 -10 11 -10 5z"/>
<path d="M4781 4124 c0 -11 3 -14 6 -6 3 7 2 16 -1 19 -3 4 -6 -2 -5 -13z"/>
<path d="M4751 4114 c0 -11 3 -14 6 -6 3 7 2 16 -1 19 -3 4 -6 -2 -5 -13z"/>
<path d="M4910 4120 c0 -5 5 -10 10 -10 6 0 10 5 10 10 0 6 -4 10 -10 10 -5 0
-10 -4 -10 -10z"/>
<path d="M5038 4123 c6 -2 18 -2 25 0 6 3 1 5 -13 5 -14 0 -19 -2 -12 -5z"/>
<path d="M4978 4103 c7 -3 16 -2 19 1 4 3 -2 6 -13 5 -11 0 -14 -3 -6 -6z"/>
<path d="M5055 4100 c3 -5 12 -7 20 -3 21 7 19 13 -6 13 -11 0 -18 -4 -14 -10z"/>
<path d="M4733 4066 c-4 -50 -27 -145 -35 -140 -14 9 -9 -4 8 -21 15 -15 17
-15 29 2 7 10 16 37 19 60 4 23 14 44 22 47 8 3 14 10 14 15 0 6 -8 7 -17 4
-15 -6 -16 -4 -6 8 13 16 6 32 -17 41 -11 4 -16 -1 -17 -16z"/>
<path d="M4928 4083 c7 -3 16 -2 19 1 4 3 -2 6 -13 5 -11 0 -14 -3 -6 -6z"/>
<path d="M5070 4063 c0 -12 5 -25 10 -28 13 -8 13 15 0 35 -8 12 -10 11 -10
-7z"/>
<path d="M5055 4010 c-3 -5 -1 -10 4 -10 6 0 11 5 11 10 0 6 -2 10 -4 10 -3 0
-8 -4 -11 -10z"/>
<path d="M4784 3999 c-3 -6 -2 -15 3 -20 5 -5 9 -1 9 11 0 23 -2 24 -12 9z"/>
<path d="M5076 3911 c-3 -5 5 -11 19 -13 28 -6 34 6 9 16 -20 8 -22 8 -28 -3z"/>
<path d="M2906 3802 c-57 -36 -72 -58 -38 -56 22 1 132 71 132 84 0 19 -36 8
-94 -28z"/>
<path d="M4966 3765 c-3 -9 -6 -22 -5 -28 0 -7 5 -1 10 12 5 13 8 26 5 28 -2
2 -6 -3 -10 -12z"/>
<path d="M4855 3561 c-3 -5 -1 -12 5 -16 5 -3 10 1 10 9 0 18 -6 21 -15 7z"/>
<path d="M4866 3507 c3 -10 9 -15 12 -12 3 3 0 11 -7 18 -10 9 -11 8 -5 -6z"/>
<path d="M1372 2848 c-11 -18 -21 -42 -22 -53 -5 -44 1 -75 13 -75 13 0 44
146 34 156 -3 3 -14 -10 -25 -28z"/>
<path d="M1590 2860 c0 -8 5 -22 10 -30 9 -13 10 -13 10 0 0 8 -5 22 -10 30
-9 13 -10 13 -10 0z"/>
<path d="M1620 2781 c11 -39 26 -65 46 -82 20 -16 19 -13 -19 59 -31 58 -40
66 -27 23z"/>
<path d="M1267 2680 c-8 -22 -12 -40 -7 -40 9 0 34 69 28 76 -3 2 -12 -14 -21
-36z"/>
<path d="M1232 2545 c0 -16 2 -22 5 -12 2 9 2 23 0 30 -3 6 -5 -1 -5 -18z"/>
</g>
</svg>
